<svg width="62" height="92" viewBox="0 0 62 92" fill="none" xmlns="http://www.w3.org/2000/svg">
<path d="M59.8742 57.6769C54.5599 45.4692 42.9571 37.6846 33.6571 28.4846C25.2428 20.6115 20.7257 11.2346 19.9285 0.265381C-0.885773 23.3538 -11.7801 74.4846 23.6485 89.5231C26.9257 90.85 30.2028 91.3808 33.3914 91.3808C51.3714 91.3808 66.2514 72.7154 59.8742 57.6769ZM17.3599 10.7923V18.3115C16.8285 18.4885 16.5628 19.0192 16.5628 19.55C16.5628 20.3462 17.1828 20.9654 17.9799 20.9654C18.7771 20.9654 19.3971 20.3462 19.3971 19.55C19.3971 19.0192 19.0428 18.4885 18.5999 18.3115V13.6231C20.1057 17.6923 22.2314 21.5846 24.9771 25.1231L21.4342 28.6615C21.2571 28.5731 21.0799 28.5731 20.9028 28.5731C20.1057 28.5731 19.4857 29.1923 19.4857 29.9885C19.4857 30.7846 20.1057 31.4038 20.9028 31.4038C21.6999 31.4038 22.3199 30.7846 22.3199 29.9885C22.3199 29.8115 22.3199 29.6346 22.2314 29.4577L25.6857 26.0077C26.6599 27.2461 27.7228 28.4846 28.8742 29.6346L24.7114 33.6154C24.6228 33.7038 24.6228 33.7923 24.6228 33.7923V57.0577C24.6228 57.2346 24.7999 57.3231 24.8885 57.3231H50.5742C50.7514 57.8538 51.2828 58.1192 51.8142 58.1192C52.6114 58.1192 53.2314 57.5 53.2314 56.7038C53.2314 55.9077 52.6114 55.2885 51.8142 55.2885C51.2828 55.2885 50.7514 55.6423 50.5742 56.0846H25.7742V33.9692L29.4942 30.2538C29.9371 30.6961 30.2914 31.05 30.7342 31.4923C31.2657 32.0231 31.7971 32.5538 32.3285 33.0846L30.6457 34.7654C30.4685 34.6769 30.2914 34.6769 30.1142 34.6769C29.3171 34.6769 28.6971 35.2962 28.6971 36.0923C28.6971 36.8885 29.3171 37.5077 30.1142 37.5077C30.9114 37.5077 31.5314 36.8885 31.5314 36.0923C31.5314 35.9154 31.5314 35.7385 31.4428 35.5615L33.1257 33.8808C34.8085 35.3846 36.4914 36.9769 38.1742 38.3923C38.7942 38.9231 39.4142 39.4538 39.9457 39.9846H34.7199C34.5428 39.4538 34.0114 39.1885 33.4799 39.1885C32.6828 39.1885 32.0628 39.8077 32.0628 40.6038C32.0628 41.4 32.6828 42.0192 33.4799 42.0192C34.0114 42.0192 34.5428 41.6654 34.7199 41.2231H41.1857C42.4257 42.3731 43.7542 43.5231 44.9057 44.6731H37.9971C37.8199 44.1423 37.2885 43.8769 36.7571 43.8769C35.9599 43.8769 35.3399 44.4962 35.3399 45.2923C35.3399 46.0885 35.9599 46.7077 36.7571 46.7077C37.2885 46.7077 37.8199 46.3538 37.9971 45.9115H45.9685C50.1314 50.0692 53.6742 54.4038 55.8885 59.5346C56.5971 61.3038 57.0399 63.1615 57.0399 65.1077L54.7371 67.4077H32.7714C32.5942 67.4077 32.5057 67.5846 32.5057 67.6731V78.7308C32.5057 78.8192 32.5057 78.9077 32.5942 78.9077L39.8571 86.1615C38.4399 86.6038 37.0228 86.8692 35.6057 87.0462L18.1571 69.6192V45.1154C18.1571 45.0269 18.1571 44.9385 18.0685 44.9385L8.32566 35.2077V29.9C9.38851 26.5385 10.6285 23.2654 12.1342 20.0808V22.6462C12.1342 22.7346 12.1342 22.8231 12.2228 22.8231L13.9057 24.5038C13.8171 24.6808 13.8171 24.8577 13.8171 25.0346C13.8171 25.8308 14.4371 26.45 15.2342 26.45C16.0314 26.45 16.6514 25.8308 16.6514 25.0346C16.6514 24.2385 16.0314 23.6192 15.2342 23.6192C15.0571 23.6192 14.8799 23.6192 14.7028 23.7077L13.2857 22.2923V17.8692C13.7285 17.0731 14.0828 16.2769 14.5257 15.4808C15.4114 13.8885 16.3857 12.2962 17.3599 10.7923ZM28.5199 86.5154L24.3571 82.3577C24.4457 82.1808 24.4457 82.0038 24.4457 81.8269C24.4457 81.0308 23.8257 80.4115 23.0285 80.4115C22.2314 80.4115 21.6114 81.0308 21.6114 81.8269C21.6114 82.6231 22.2314 83.2423 23.0285 83.2423C23.2057 83.2423 23.3828 83.2423 23.5599 83.1538L26.3942 85.9846C26.0399 85.8961 25.6857 85.7192 25.3314 85.6308C22.9399 84.6577 20.8142 83.4192 18.7771 82.0038V78.4654C18.7771 78.3769 18.7771 78.2885 18.6885 78.2885L13.2857 72.8038V52.7231C13.8171 52.5461 14.0828 52.0154 14.0828 51.4846C14.0828 50.6885 13.4628 50.0692 12.6657 50.0692C11.8685 50.0692 11.2485 50.6885 11.2485 51.4846C11.2485 52.0154 11.6028 52.5461 12.0457 52.7231V73.1577C12.0457 73.2461 12.0457 73.3346 12.1342 73.3346L17.5371 78.7308V81.1192C15.5885 79.6154 13.8171 77.8462 12.2228 75.9C10.8057 74.1308 9.56566 72.0962 8.59137 69.9731L10.1857 68.3808C10.2742 68.2923 10.2742 68.2038 10.2742 68.2038V65.0192C10.8057 64.8423 11.0714 64.3115 11.0714 63.7808C11.0714 62.9846 10.4514 62.3654 9.65423 62.3654C8.85708 62.3654 8.23708 62.9846 8.23708 63.7808C8.23708 64.3115 8.59137 64.8423 9.03423 65.0192V67.85L7.97137 68.9115C6.99708 66.7885 6.28851 64.4885 5.75708 62.0115C5.57994 61.3038 5.49137 60.6846 5.4028 59.9769H8.32566C8.5028 60.5077 9.03423 60.7731 9.56566 60.7731C10.3628 60.7731 10.9828 60.1538 10.9828 59.3577C10.9828 58.5615 10.3628 57.9423 9.56566 57.9423C9.03423 57.9423 8.5028 58.2962 8.32566 58.7385H5.22566C5.13708 58.0308 5.04851 57.2346 4.95994 56.4385L10.0971 51.3077C10.1857 51.2192 10.1857 51.1308 10.1857 51.1308V47.9462C10.7171 47.7692 10.9828 47.2385 10.9828 46.7077C10.9828 45.9115 10.3628 45.2923 9.56566 45.2923C8.76851 45.2923 8.14851 45.9115 8.14851 46.7077C8.14851 47.2385 8.5028 47.7692 8.94566 47.9462V50.7769L4.69423 55.0231C4.51709 52.9 4.51708 50.6885 4.60566 48.3885L7.61709 45.3808C7.70566 45.2923 7.70566 45.2038 7.70566 45.2038V42.0192C8.23708 41.8423 8.5028 41.3115 8.5028 40.7808C8.5028 39.9846 7.8828 39.3654 7.08566 39.3654C6.28851 39.3654 5.66851 39.9846 5.66851 40.7808C5.66851 41.3115 6.0228 41.8423 6.46566 42.0192V44.85L4.60566 46.7077C4.60566 46.6192 4.60566 46.6192 4.60566 46.5308C4.95994 42.2846 5.66851 37.95 6.81994 33.5269V35.3846C6.81994 35.4731 6.81994 35.5615 6.90851 35.5615L16.6514 45.2923V69.7962C16.6514 69.8846 16.6514 69.9731 16.7399 69.9731L33.6571 86.8692C33.3914 86.8692 33.1257 86.8692 32.9485 86.8692C31.7971 87.0462 30.1142 86.8692 28.5199 86.5154ZM44.9942 83.95C43.7542 84.6577 42.4257 85.2769 41.0085 85.8077L33.5685 78.3769V68.3808H55.0914C55.1799 68.3808 55.2685 68.3808 55.2685 68.2923L57.0399 66.5231C56.8628 68.1154 56.5085 69.7077 55.8885 71.3H46.9428C46.8542 71.3 46.7657 71.3 46.7657 71.3885L40.8314 77.3154C40.6542 77.2269 40.4771 77.2269 40.2999 77.2269C39.5028 77.2269 38.8828 77.8462 38.8828 78.6423C38.8828 79.4385 39.5028 80.0577 40.2999 80.0577C41.0971 80.0577 41.7171 79.4385 41.7171 78.6423C41.7171 78.4654 41.7171 78.2885 41.6285 78.1115L47.3857 72.3615H55.6228C55.1799 73.3346 54.6485 74.3077 54.0285 75.2808H49.5999C49.5114 75.2808 49.4228 75.2808 49.4228 75.3692L45.6142 79.1731C45.4371 79.0846 45.2599 79.0846 45.0828 79.0846C44.2857 79.0846 43.6657 79.7038 43.6657 80.5C43.6657 81.2962 44.2857 81.9154 45.0828 81.9154C45.8799 81.9154 46.4999 81.2962 46.4999 80.5C46.4999 80.3231 46.4999 80.1462 46.4114 79.9692L50.0428 76.3423H53.2314C51.0171 79.5269 48.1828 82.0923 44.9942 83.95Z" fill="white"/>
<path d="M46.2345 49.9808C45.6145 49.9808 44.9945 50.4231 44.9059 51.0423H32.7716L30.203 48.4769C30.2916 48.3 30.3802 48.0346 30.3802 47.7692C30.3802 46.9731 29.7602 46.3539 28.963 46.3539C28.1659 46.3539 27.5459 46.9731 27.5459 47.7692C27.5459 48.5654 28.1659 49.1846 28.963 49.1846C29.0516 49.1846 29.1402 49.1846 29.2288 49.1846L32.1516 52.1039C32.2402 52.1923 32.3288 52.1923 32.3288 52.1923H44.9059C45.1716 52.5462 45.6145 52.8115 46.0573 52.8115C46.8545 52.8115 47.4745 52.1923 47.4745 51.3962C47.563 50.6 46.943 49.9808 46.2345 49.9808Z" fill="white"/>
<path d="M29.1399 62.7192L26.217 65.6385C26.1285 65.6385 26.0399 65.6385 25.9513 65.6385C25.1542 65.6385 24.5342 66.2577 24.5342 67.0538C24.5342 67.85 25.1542 68.4692 25.9513 68.4692C26.7485 68.4692 27.3685 67.85 27.3685 67.0538C27.3685 66.7885 27.2799 66.5231 27.1913 66.3461L29.7599 63.7808H50.6628C50.8399 64.4 51.3713 64.8423 51.9913 64.8423C52.7885 64.8423 53.4085 64.2231 53.4085 63.4269C53.4085 62.6308 52.7885 62.0115 51.9913 62.0115C51.5485 62.0115 51.1056 62.2769 50.8399 62.6308H29.317C29.2285 62.6308 29.2285 62.7192 29.1399 62.7192Z" fill="white"/>
<path d="M15.5887 33.0846C15.5887 32.2885 14.9687 31.6692 14.1715 31.6692C13.3744 31.6692 12.7544 32.2885 12.7544 33.0846C12.7544 33.8808 13.3744 34.5 14.1715 34.5C14.2601 34.5 14.4373 34.5 14.5258 34.4115L20.5487 40.4269V60.2423C20.5487 60.4192 20.7258 60.5077 20.8144 60.5077H28.343C28.5201 61.0385 29.0515 61.3039 29.583 61.3039C30.3801 61.3039 31.0001 60.6846 31.0001 59.8885C31.0001 59.0923 30.3801 58.4731 29.583 58.4731C29.0515 58.4731 28.5201 58.8269 28.343 59.2692H21.6115V40.0731C21.6115 39.9846 21.6115 39.8962 21.523 39.8962L15.323 33.7038C15.5001 33.5269 15.5887 33.2615 15.5887 33.0846Z" fill="white"/>
</svg>
