<svg width="18" height="18" viewBox="0 0 18 18" fill="none" xmlns="http://www.w3.org/2000/svg">
<g clip-path="url(#clip0_88_10594)">
<path d="M14.3362 0H3.30836C1.48079 0 0 1.48079 0 3.30836V14.3362C0 16.1638 1.48079 17.6446 3.30836 17.6446H14.3362C16.1638 17.6446 17.6446 16.1638 17.6446 14.3362V3.30836C17.6446 1.48079 16.1638 0 14.3362 0ZM16.457 5.99101C16.457 6.08466 16.3816 6.16067 16.2873 6.16067H15.3711L11.2165 15.0033C11.1894 15.0617 11.1303 15.1004 11.0652 15.101C11.0645 15.101 11.0632 15.101 11.0632 15.101C10.9987 15.101 10.9396 15.0651 10.9111 15.0074L8.93969 11.0971L6.81216 15.0121C6.78163 15.0685 6.72733 15.0997 6.65811 15.101C6.59432 15.099 6.53664 15.0617 6.50949 15.004L2.30873 6.16067H1.35728C1.26362 6.16067 1.18762 6.08466 1.18762 5.99101V5.54311C1.18762 5.44946 1.26362 5.37345 1.35728 5.37345H4.74571C4.83937 5.37345 4.91537 5.44946 4.91537 5.54311V5.99101C4.91537 6.08466 4.83937 6.16067 4.74571 6.16067H4.01618L6.91532 12.848L8.42393 10.0296L6.51153 6.16135H6.05141C5.95776 6.16135 5.88175 6.08534 5.88175 5.99169V5.54379C5.88175 5.45014 5.95776 5.37413 6.05141 5.37413H8.55762C8.65127 5.37413 8.72728 5.45014 8.72728 5.54379V5.99169C8.72728 6.08534 8.65127 6.16135 8.55762 6.16135H8.11651L9.21658 8.56848L10.5263 6.16135H9.72284C9.62851 6.16135 9.55318 6.08534 9.55318 5.99169V5.54379C9.55318 5.45014 9.62851 5.37413 9.72284 5.37413H12.1578C12.2521 5.37413 12.3275 5.45014 12.3275 5.54379V5.99169C12.3275 6.08534 12.2521 6.16135 12.1578 6.16135H11.6237L9.71198 9.63462L11.2701 12.8378L14.2765 6.16135H13.3237C13.23 6.16135 13.154 6.08534 13.154 5.99169V5.54379C13.154 5.45014 13.23 5.37413 13.3237 5.37413H16.2873C16.3816 5.37413 16.457 5.45014 16.457 5.54379V5.99101Z" fill="white"/>
</g>
<defs>
<clipPath id="clip0_88_10594">
<rect width="17.6446" height="17.6446" fill="white"/>
</clipPath>
</defs>
</svg>
